{"extensionsUsed" : ["KHR_materials_specular", "KHR_materials_ior"], "accessors" : [{"bufferView" : 0, "byteOffset" : 0, "componentType" : 5123, "count" : 867, "type" : "SCALAR", "max" : [741], "min" : [0]}, {"bufferView" : 1, "byteOffset" : 0, "componentType" : 5126, "count" : 742, "type" : "VEC3", "max" : [0.3189930319786072, 0.9235172271728516, 0.30301234126091003], "min" : [-0.33047792315483093, 0.00015014410018920898, -0.34645864367485046], "name" : "POSITION"}, {"bufferView" : 1, "byteOffset" : 12, "componentType" : 5126, "count" : 742, "type" : "VEC3", "max" : [0.9999673366546631, 0.7371599078178406, 0.8984720706939697], "min" : [-1.0000032186508179, -0.05283676087856293, -0.8984720706939697], "name" : "NORMAL"}, {"bufferView" : 1, "byteOffset" : 24, "componentType" : 5126, "count" : 742, "type" : "VEC2", "max" : [0.653863251209259, 0.4509844183921814], "min" : [0.4579262137413025, 0.01768636703491211], "name" : "TEXCOORD_0"}], "asset" : {"generator" : "Aspose.3D 22.10", "version" : "2.0"}, "buffers" : [{"uri" : "data:application/octet-stream;base64,", "byteLength" : 29488}], "bufferViews" : [{"buffer" : 0, "byteOffset" : 0, "byteLength" : 1736, "target" : 34963}, {"buffer" : 0, "byteOffset" : 1740, "byteLength" : 27744, "byteStride" : 32, "target" : 34962}], "images" : [{"uri" : "data:image/png;base64,"}, {"uri" : "data:image/png;base64,"}], "materials" : [{"name" : "Lowpoly_naural", "extensions" : {"KHR_materials_specular" : {"specularColorTexture" : {"index" : 0}, "specularColorFactor" : [2.371357614441398, 2.371357614441398, 2.371357614441398]}, "KHR_materials_ior" : {"ior" : 1.4500000476837158}}, "pbrMetallicRoughness" : {"baseColorFactor" : [1, 1, 1, 1], "baseColorTexture" : {"index" : 0, "texCoord" : 0}, "metallicFactor" : 1, "roughnessFactor" : 1, "metallicRoughnessTexture" : {"index" : 1, "texCoord" : 0}}, "emissiveFactor" : [0, 0, 0], "alphaMode" : "OPAQUE", "doubleSided" : true}], "meshes" : [{"primitives" : [{"attributes" : {"POSITION" : 1, "NORMAL" : 2, "TEXCOORD_0" : 3}, "indices" : 0, "material" : 0, "mode" : 4}]}], "nodes" : [{"matrix" : [1.6132352352142334, 0, 0, 0, 0, 1.6132352352142334, 0, 0, 0, 0, 1.6132352352142334, 0, -0.009112358093261719, 0, -0.0011445283889770508, 1], "mesh" : 0, "name" : "tree.009"}], "samplers" : [{"magFilter" : 9729, "minFilter" : 9987, "wrapS" : 10497, "wrapT" : 10497}, {"magFilter" : 9729, "minFilter" : 9987, "wrapS" : 10497, "wrapT" : 10497}], "scene" : 0, "scenes" : [{"nodes" : [0]}], "textures" : [{"sampler" : 0, "source" : 0, "name" : ""}, {"sampler" : 1, "source" : 1, "name" : ""}]}